<svg width="16" height="18" viewBox="0 0 16 18" fill="none" xmlns="http://www.w3.org/2000/svg">
<path d="M5.98239 3.58032L6.47689 2.3078C6.56082 2.09316 6.70779 1.90897 6.89846 1.7795C7.08913 1.65004 7.31454 1.58136 7.54501 1.58253H8.47138C8.701 1.58236 8.92533 1.6515 9.11502 1.7809C9.30471 1.9103 9.45093 2.09394 9.53455 2.3078L10.0291 3.58032L11.6774 4.53635L13.029 4.33196C13.255 4.2986 13.4858 4.33387 13.6916 4.4332C13.8973 4.53254 14.0684 4.69136 14.1829 4.88909L14.6477 5.69348C14.7621 5.89229 14.814 6.12094 14.7967 6.34967C14.7793 6.5784 14.6935 6.7966 14.5504 6.97588L13.6982 8.044V9.95607L14.5504 11.0242C14.6935 11.2035 14.7793 11.4217 14.7967 11.6504C14.814 11.8791 14.7621 12.1078 14.6477 12.3066L14.1829 13.111C14.0684 13.3087 13.8973 13.4675 13.6916 13.5669C13.4858 13.6662 13.255 13.7015 13.029 13.6681L11.6774 13.4637L10.0291 14.4198L9.53455 15.6923C9.45093 15.9061 9.30471 16.0898 9.11502 16.2192C8.92533 16.3486 8.701 16.4177 8.47138 16.4175H7.54501C7.31539 16.4177 7.09106 16.3486 6.90137 16.2192C6.71168 16.0898 6.56546 15.9061 6.48184 15.6923L5.98734 14.4198L4.339 13.4637L2.98737 13.6681C2.76137 13.7015 2.53055 13.6662 2.32483 13.5669C2.11911 13.4675 1.94795 13.3087 1.83353 13.111L1.35222 12.3066C1.2378 12.1078 1.18588 11.8791 1.20322 11.6504C1.22057 11.4217 1.30637 11.2035 1.44947 11.0242L2.30166 9.95607V8.044L1.44947 6.97588C1.30637 6.7966 1.22057 6.5784 1.20322 6.34967C1.18588 6.12094 1.2378 5.89229 1.35222 5.69348L1.81705 4.88909C1.93147 4.69136 2.10262 4.53254 2.30835 4.4332C2.51407 4.33387 2.74488 4.2986 2.97088 4.33196L4.32252 4.53635L5.98239 3.58032ZM5.94778 9.00004C5.94778 9.54649 6.16485 10.0706 6.55126 10.457C6.93766 10.8434 7.46174 11.0605 8.00819 11.0605C8.55465 11.0605 9.07873 10.8434 9.46513 10.457C9.85153 10.0706 10.0686 9.54649 10.0686 9.00004C10.0686 8.45358 9.85153 7.92951 9.46513 7.5431C9.07873 7.1567 8.55465 6.93962 8.00819 6.93962C7.46174 6.93962 6.93766 7.1567 6.55126 7.5431C6.16485 7.92951 5.94778 8.45358 5.94778 9.00004Z" stroke="#666F8D" stroke-width="1.3" stroke-linecap="round"/>
</svg>
